<?xml version="1.0" encoding="UTF-8"?>
<svg version="1.1" xmlns="http://www.w3.org/2000/svg" width="96" height="96">
<path d="M0 0 C31.68 0 63.36 0 96 0 C96 31.68 96 63.36 96 96 C64.32 96 32.64 96 0 96 C0 64.32 0 32.64 0 0 Z " fill="#E0A87B" transform="translate(0,0)"/>
<path d="M0 0 C0 12.87 0 25.74 0 39 C-31.68 39 -63.36 39 -96 39 C-96 28.11 -96 17.22 -96 6 C-95.01 6 -94.02 6 -93 6 C-92.2575 5.9175 -91.515 5.835 -90.75 5.75 C-86.77782411 6.1111069 -84.36467228 7.88883308 -81 10 C-81 10.66 -81 11.32 -81 12 C-79.68 12 -78.36 12 -77 12 C-76.67 12.66 -76.34 13.32 -76 14 C-73.47266765 14.65555119 -73.47266765 14.65555119 -71 15 C-70.95875 14.401875 -70.9175 13.80375 -70.875 13.1875 C-69.55192854 9.87982135 -67.16194109 9.42597343 -64 8 C-63.278125 7.443125 -62.55625 6.88625 -61.8125 6.3125 C-60 5 -60 5 -57 5 C-56.67 4.01 -56.34 3.02 -56 2 C-55.34 3.32 -54.68 4.64 -54 6 C-49.07528812 6.13836994 -44.74597312 5.6638359 -39.9375 4.625 C-30.51893382 2.70363065 -21.02870478 1.99597088 -11.4609375 1.22167969 C-7.68242875 0.88131402 -3.78076509 0 0 0 Z " fill="#B17659" transform="translate(96,57)"/>
<path d="M0 0 C18.15 0 36.3 0 55 0 C55 2.64 55 5.28 55 8 C54.34 8 53.68 8 53 8 C53.66 9.98 54.32 11.96 55 14 C53.02 14.66 51.04 15.32 49 16 C49.66 17.32 50.32 18.64 51 20 C51 19.34 51 18.68 51 18 C51.66 18 52.32 18 53 18 C53.66 19.98 54.32 21.96 55 24 C56.98 24 58.96 24 61 24 C61 28 61 28 59 31 C58.01 31 57.02 31 56 31 C56 31.66 56 32.32 56 33 C51.25 34.125 51.25 34.125 49 33 C48.67 34.98 48.34 36.96 48 39 C47.34 39 46.68 39 46 39 C46 39.99 46 40.98 46 42 C48.475 41.505 48.475 41.505 51 41 C51 40.34 51 39.68 51 39 C53.97 38.34 56.94 37.68 60 37 C60.83241855 40.32967418 61.2757381 42.75266665 60 46 C59.01 46.495 59.01 46.495 58 47 C57.27840576 48.64363134 56.60648579 50.31050386 56 52 C54.68 52 53.36 52 52 52 C52 53.65 52 55.3 52 57 C50.68 56.67 49.36 56.34 48 56 C48 55.34 48 54.68 48 54 C45.03 54.495 45.03 54.495 42 55 C41.505 51.535 41.505 51.535 41 48 C40.01 48 39.02 48 38 48 C37.97301811 46.37509046 37.95361243 44.75005367 37.9375 43.125 C37.92589844 42.22007813 37.91429687 41.31515625 37.90234375 40.3828125 C38 38 38 38 39 36 C38.01 35.67 37.02 35.34 36 35 C34.5522078 32.10441559 34 30.25811062 34 27 C32.9275 27.515625 31.855 28.03125 30.75 28.5625 C27.65681815 29.89790984 26.23437259 30.0781242 23 29 C20.31850007 29.38567131 20.31850007 29.38567131 18 30 C17.67 29.34 17.34 28.68 17 28 C16.4225 28.185625 15.845 28.37125 15.25 28.5625 C12.79307475 29.04023546 11.35602466 28.75729364 9 28 C9 28.66 9 29.32 9 30 C7.35 30.33 5.7 30.66 4 31 C6.64 31.33 9.28 31.66 12 32 C12 32.66 12 33.32 12 34 C12.66 34 13.32 34 14 34 C13.42415568 36.38564077 12.77772405 38.66682784 12 41 C10.02 41 8.04 41 6 41 C5.7525 41.804375 5.505 42.60875 5.25 43.4375 C4.63125 44.7059375 4.63125 44.7059375 4 46 C2.02 46.495 2.02 46.495 0 47 C0 31.49 0 15.98 0 0 Z " fill="#B3ACA4" transform="translate(0,0)"/>
<path d="M0 0 C13.53 0 27.06 0 41 0 C41 13.86 41 27.72 41 42 C40.34 42 39.68 42 39 42 C38.34 42.66 37.68 43.32 37 44 C35.1875 43.6875 35.1875 43.6875 33 43 C31.33440957 42.66132995 29.66760321 42.32861593 28 42 C27.23300781 41.82339844 26.46601562 41.64679687 25.67578125 41.46484375 C19.70110033 40.13165049 14.11147073 39.76594367 8 40 C7.67 40.66 7.34 41.32 7 42 C6.34 40.68 5.68 39.36 5 38 C0.545 38.495 0.545 38.495 -4 39 C-4 39.66 -4 40.32 -4 41 C-4.66 41 -5.32 41 -6 41 C-6.33 41.66 -6.66 42.32 -7 43 C-7.66 42.67 -8.32 42.34 -9 42 C-9 41.01 -9 40.02 -9 39 C-8.34 39 -7.68 39 -7 39 C-6.505 36.03 -6.505 36.03 -6 33 C-3.69 33 -1.38 33 1 33 C1 32.34 1 31.68 1 31 C1.99 31 2.98 31 4 31 C4.66 29.02 5.32 27.04 6 25 C5.05125 24.896875 4.1025 24.79375 3.125 24.6875 C0 24 0 24 -2 21 C-2 20.01 -2 19.02 -2 18 C-2.66 18 -3.32 18 -4 18 C-3.67 18.99 -3.34 19.98 -3 21 C-3.99 20.67 -4.98 20.34 -6 20 C-6 18.68 -6 17.36 -6 16 C-3 14 -3 14 0 14 C-0.66 12.02 -1.32 10.04 -2 8 C-1.34 8 -0.68 8 0 8 C0 6.68 0 5.36 0 4 C-0.99 3.67 -1.98 3.34 -3 3 C-2.01 3 -1.02 3 0 3 C0 2.01 0 1.02 0 0 Z " fill="#B1A79F" transform="translate(55,0)"/>
<path d="M0 0 C0.3690205 9.41002278 0.3690205 9.41002278 -2 14 C-2.66 14 -3.32 14 -4 14 C-4 15.98 -4 17.96 -4 20 C-5.99097846 17.01353231 -6.94124926 14.40312738 -8 11 C-8.33 11 -8.66 11 -9 11 C-9.33 12.65 -9.66 14.3 -10 16 C-10.33 16 -10.66 16 -11 16 C-11 13.03 -11 10.06 -11 7 C-12.32 7 -13.64 7 -15 7 C-15 7.66 -15 8.32 -15 9 C-17.31 9.33 -19.62 9.66 -22 10 C-22 13.96 -22 17.92 -22 22 C-22.66 22 -23.32 22 -24 22 C-24 20.68 -24 19.36 -24 18 C-24.62648438 18.08378906 -25.25296875 18.16757813 -25.8984375 18.25390625 C-26.71570313 18.35574219 -27.53296875 18.45757812 -28.375 18.5625 C-29.18710938 18.66691406 -29.99921875 18.77132812 -30.8359375 18.87890625 C-33 19 -33 19 -35 18 C-35.495 19.485 -35.495 19.485 -36 21 C-39.33333333 21 -42.66666667 21 -46 21 C-46.66 21.165 -47.32 21.33 -48 21.5 C-50 22 -50 22 -53 22 C-53.66 21.34 -54.32 20.68 -55 20 C-55.99 19.67 -56.98 19.34 -58 19 C-58 19.66 -58 20.32 -58 21 C-59.32 21 -60.64 21 -62 21 C-62 20.01 -62 19.02 -62 18 C-62.99 18 -63.98 18 -65 18 C-65 19.32 -65 20.64 -65 22 C-65.66 22 -66.32 22 -67 22 C-67 20.68 -67 19.36 -67 18 C-67.66 18 -68.32 18 -69 18 C-69.33 18.99 -69.66 19.98 -70 21 C-70 20.01 -70 19.02 -70 18 C-71.32 18 -72.64 18 -74 18 C-74.33 18.99 -74.66 19.98 -75 21 C-75 20.01 -75 19.02 -75 18 C-76.32 18 -77.64 18 -79 18 C-79 18.66 -79 19.32 -79 20 C-79.99 20 -80.98 20 -82 20 C-82 19.34 -82 18.68 -82 18 C-83.32 18 -84.64 18 -86 18 C-86.33 19.32 -86.66 20.64 -87 22 C-87 20.68 -87 19.36 -87 18 C-88.32 18 -89.64 18 -91 18 C-91 18.66 -91 19.32 -91 20 C-92.65 19.67 -94.3 19.34 -96 19 C-96 14.71 -96 10.42 -96 6 C-95.01 6 -94.02 6 -93 6 C-92.2575 5.9175 -91.515 5.835 -90.75 5.75 C-86.77782411 6.1111069 -84.36467228 7.88883308 -81 10 C-81 10.66 -81 11.32 -81 12 C-79.68 12 -78.36 12 -77 12 C-76.67 12.66 -76.34 13.32 -76 14 C-73.47266765 14.65555119 -73.47266765 14.65555119 -71 15 C-70.95875 14.401875 -70.9175 13.80375 -70.875 13.1875 C-69.55192854 9.87982135 -67.16194109 9.42597343 -64 8 C-63.278125 7.443125 -62.55625 6.88625 -61.8125 6.3125 C-60 5 -60 5 -57 5 C-56.67 4.01 -56.34 3.02 -56 2 C-55.34 3.32 -54.68 4.64 -54 6 C-49.07528812 6.13836994 -44.74597312 5.6638359 -39.9375 4.625 C-30.51893382 2.70363065 -21.02870478 1.99597088 -11.4609375 1.22167969 C-7.68242875 0.88131402 -3.78076509 0 0 0 Z " fill="#B28369" transform="translate(96,57)"/>
<path d="M0 0 C1.05477539 0.05317383 1.05477539 0.05317383 2.13085938 0.10742188 C6.17011046 0.36105807 9.37850964 1.04499888 13.0625 2.6875 C15.68781524 2.85463569 15.68781524 2.85463569 18.0625 2.6875 C19.72916667 2.6875 21.39583333 2.6875 23.0625 2.6875 C23.0625 7.6375 23.0625 12.5875 23.0625 17.6875 C17.80337429 19.19010734 14.31813024 19.9569899 9.0625 20.1875 C-2.10554568 20.81528955 -13.10263821 22.49598342 -24.1328125 24.3203125 C-26.77407635 24.6661047 -29.27782038 24.75569691 -31.9375 24.6875 C-32.2675 24.0275 -32.5975 23.3675 -32.9375 22.6875 C-31.9475 21.2025 -31.9475 21.2025 -30.9375 19.6875 C-30.2775 19.6875 -29.6175 19.6875 -28.9375 19.6875 C-28.6075 19.0275 -28.2775 18.3675 -27.9375 17.6875 C-27.2775 17.6875 -26.6175 17.6875 -25.9375 17.6875 C-25.6075 17.0275 -25.2775 16.3675 -24.9375 15.6875 C-23.6175 16.3475 -22.2975 17.0075 -20.9375 17.6875 C-20.9375 16.0375 -20.9375 14.3875 -20.9375 12.6875 C-20.31875 12.625625 -19.7 12.56375 -19.0625 12.5 C-16.65988859 11.858581 -16.65988859 11.858581 -15.6875 9.125 C-15.44 8.320625 -15.1925 7.51625 -14.9375 6.6875 C-14.2775 6.6875 -13.6175 6.6875 -12.9375 6.6875 C-12.6075 4.7075 -12.2775 2.7275 -11.9375 0.6875 C-7.99161833 -0.67562276 -4.09075946 -0.27222009 0 0 Z " fill="#BB9275" transform="translate(72.9375,39.3125)"/>
<path d="M0 0 C3.96 0 7.92 0 12 0 C12 2.64 12 5.28 12 8 C11.34 8 10.68 8 10 8 C10.66 9.98 11.32 11.96 12 14 C10.02 14.66 8.04 15.32 6 16 C6.66 17.32 7.32 18.64 8 20 C8 19.34 8 18.68 8 18 C8.66 18 9.32 18 10 18 C10.66 19.98 11.32 21.96 12 24 C13.98 24 15.96 24 18 24 C18 28 18 28 16 31 C15.01 31 14.02 31 13 31 C13 31.66 13 32.32 13 33 C8.25 34.125 8.25 34.125 6 33 C5.67 34.98 5.34 36.96 5 39 C4.34 39 3.68 39 3 39 C3 39.99 3 40.98 3 42 C5.475 41.505 5.475 41.505 8 41 C8 40.34 8 39.68 8 39 C10.97 38.34 13.94 37.68 17 37 C17.83241855 40.32967418 18.2757381 42.75266665 17 46 C16.01 46.495 16.01 46.495 15 47 C14.27840576 48.64363134 13.60648579 50.31050386 13 52 C11.68 52 10.36 52 9 52 C9 53.65 9 55.3 9 57 C7.68 56.67 6.36 56.34 5 56 C5 55.34 5 54.68 5 54 C2.03 54.495 2.03 54.495 -1 55 C-1.33 52.69 -1.66 50.38 -2 48 C-2.99 48 -3.98 48 -5 48 C-5.02698189 46.37509046 -5.04638757 44.75005367 -5.0625 43.125 C-5.07410156 42.22007813 -5.08570313 41.31515625 -5.09765625 40.3828125 C-5 38 -5 38 -4 36 C-4.99 35.67 -5.98 35.34 -7 35 C-8.1875 31.4375 -8.1875 31.4375 -9 28 C-7.625 26.5 -7.625 26.5 -6 25 C-5.34 25 -4.68 25 -4 25 C-3.67 24.34 -3.34 23.68 -3 23 C-3 23.66 -3 24.32 -3 25 C-1.02 25 0.96 25 3 25 C2.34 24.67 1.68 24.34 1 24 C1.0825 22.906875 1.165 21.81375 1.25 20.6875 C1.43362295 16.96372666 1.43362295 16.96372666 -1 15.25 C-1.66 14.8375 -2.32 14.425 -3 14 C-3 13.01 -3 12.02 -3 11 C-2.01 11 -1.02 11 0 11 C0 10.01 0 9.02 0 8 C1.32 8 2.64 8 4 8 C3.34 6.02 2.68 4.04 2 2 C1.34 2 0.68 2 0 2 C0 1.34 0 0.68 0 0 Z " fill="#1B1614" transform="translate(43,0)"/>
<path d="M0 0 C1.32 0 2.64 0 4 0 C4.495 1.98 4.495 1.98 5 4 C5.99 4 6.98 4 8 4 C8.99 6.97 8.99 6.97 10 10 C10.33 9.01 10.66 8.02 11 7 C11.66 7 12.32 7 13 7 C13.33 5.35 13.66 3.7 14 2 C14.33 2 14.66 2 15 2 C15 8.27 15 14.54 15 21 C14.505 20.01 14.505 20.01 14 19 C10.7 19 7.4 19 4 19 C4 19.66 4 20.32 4 21 C2.68 21 1.36 21 0 21 C0 20.34 0 19.68 0 19 C-26.73 18.34 -53.46 17.68 -81 17 C-81 15.35 -81 13.7 -81 12 C-78.525 12.495 -78.525 12.495 -76 13 C-76 12.34 -76 11.68 -76 11 C-73.03 11 -70.06 11 -67 11 C-67 11.66 -67 12.32 -67 13 C-66.01 13 -65.02 13 -64 13 C-64 12.34 -64 11.68 -64 11 C-60.04 11 -56.08 11 -52 11 C-52 12.32 -52 13.64 -52 15 C-51.34 15 -50.68 15 -50 15 C-50 13.68 -50 12.36 -50 11 C-49.01 11 -48.02 11 -47 11 C-47 11.99 -47 12.98 -47 14 C-45.68 14 -44.36 14 -43 14 C-43 13.34 -43 12.68 -43 12 C-41.35 12 -39.7 12 -38 12 C-37.505 12.99 -37.505 12.99 -37 14 C-34.47266765 14.65555119 -34.47266765 14.65555119 -32 15 C-31.67 14.01 -31.34 13.02 -31 12 C-26.05 12.99 -26.05 12.99 -21 14 C-20.67 12.68 -20.34 11.36 -20 10 C-19.01 10.33 -18.02 10.66 -17 11 C-15.60560336 11.06665376 -14.20830125 11.08538199 -12.8125 11.0625 C-11.554375 11.041875 -10.29625 11.02125 -9 11 C-9 12.32 -9 13.64 -9 15 C-8.34 15 -7.68 15 -7 15 C-7 11.04 -7 7.08 -7 3 C-3.535 2.505 -3.535 2.505 0 2 C0 1.34 0 0.68 0 0 Z " fill="#32353A" transform="translate(81,64)"/>
<path d="M0 0 C48.98869696 -0.19482911 48.98869696 -0.19482911 64.125 0.4375 C65.06722412 0.47673584 66.00944824 0.51597168 66.98022461 0.55639648 C71.71065412 0.78870431 76.32402503 1.24601488 81 2 C81 2.66 81 3.32 81 4 C82.32 4 83.64 4 85 4 C85 3.34 85 2.68 85 2 C88.3 2 91.6 2 95 2 C96 4 96 4 96 15 C79.5 15 63 15 46 15 C45.34 13.68 44.68 12.36 44 11 C48.75 12.875 48.75 12.875 51 14 C51 13.01 51 12.02 51 11 C51.99 11 52.98 11 54 11 C53.505 10.01 53.505 10.01 53 9 C49.04 9 45.08 9 41 9 C40.34 7.68 39.68 6.36 39 5 C43.62 4.67 48.24 4.34 53 4 C53 3.34 53 2.68 53 2 C35.51 1.67 18.02 1.34 0 1 C0 0.67 0 0.34 0 0 Z " fill="#825E4B" transform="translate(0,81)"/>
<path d="M0 0 C1.05477539 0.05317383 1.05477539 0.05317383 2.13085938 0.10742188 C6.17011046 0.36105807 9.37850964 1.04499888 13.0625 2.6875 C15.68781524 2.85463569 15.68781524 2.85463569 18.0625 2.6875 C19.72916667 2.6875 21.39583333 2.6875 23.0625 2.6875 C23.0625 5.3275 23.0625 7.9675 23.0625 10.6875 C21.4846875 10.9040625 21.4846875 10.9040625 19.875 11.125 C17.78085601 11.43397206 15.68760522 11.77401418 13.625 12.25 C10.10068253 12.85171274 6.6333329 12.6875 3.0625 12.6875 C2.216875 12.873125 1.37125 13.05875 0.5 13.25 C-2.78037179 13.83878468 -5.65920962 13.17317265 -8.9375 12.6875 C-9.9275 13.0175 -10.9175 13.3475 -11.9375 13.6875 C-14.27049825 13.72704234 -16.60458189 13.73151732 -18.9375 13.6875 C-19.2675 14.3475 -19.5975 15.0075 -19.9375 15.6875 C-19.9375 14.6975 -19.9375 13.7075 -19.9375 12.6875 C-18.9475 12.3575 -17.9575 12.0275 -16.9375 11.6875 C-15.71880071 9.18302484 -15.71880071 9.18302484 -14.9375 6.6875 C-14.2775 6.6875 -13.6175 6.6875 -12.9375 6.6875 C-12.6075 4.7075 -12.2775 2.7275 -11.9375 0.6875 C-7.99161833 -0.67562276 -4.09075946 -0.27222009 0 0 Z " fill="#BB9F88" transform="translate(72.9375,39.3125)"/>
<path d="M0 0 C0 3.96 0 7.92 0 12 C-0.66 12 -1.32 12 -2 12 C-2 10.68 -2 9.36 -2 8 C-2.62648437 8.08378906 -3.25296875 8.16757813 -3.8984375 8.25390625 C-4.71570313 8.35574219 -5.53296875 8.45757812 -6.375 8.5625 C-7.18710938 8.66691406 -7.99921875 8.77132812 -8.8359375 8.87890625 C-11 9 -11 9 -13 8 C-13.33 8.99 -13.66 9.98 -14 11 C-17.33333333 11 -20.66666667 11 -24 11 C-24.66 11.165 -25.32 11.33 -26 11.5 C-28 12 -28 12 -31 12 C-31.66 11.34 -32.32 10.68 -33 10 C-33.99 9.67 -34.98 9.34 -36 9 C-36 9.66 -36 10.32 -36 11 C-37.32 11 -38.64 11 -40 11 C-40 10.01 -40 9.02 -40 8 C-40.99 8 -41.98 8 -43 8 C-43 9.32 -43 10.64 -43 12 C-43.66 12 -44.32 12 -45 12 C-45 10.68 -45 9.36 -45 8 C-45.66 8 -46.32 8 -47 8 C-47.33 8.99 -47.66 9.98 -48 11 C-48 10.01 -48 9.02 -48 8 C-48.99 7.67 -49.98 7.34 -51 7 C-50.33613281 6.90203125 -49.67226563 6.8040625 -48.98828125 6.703125 C-48.10527344 6.55359375 -47.22226562 6.4040625 -46.3125 6.25 C-45.44238281 6.11078125 -44.57226562 5.9715625 -43.67578125 5.828125 C-40.85831874 5.15160814 -40.85831874 5.15160814 -38.64453125 2.96875 C-35.26986167 0.45644059 -32.43327949 0.33243748 -28.375 0.25 C-27.64804932 0.22107666 -26.92109863 0.19215332 -26.17211914 0.16235352 C-17.45353452 -0.14198753 -8.72205976 -0.08616744 0 0 Z " fill="#926B5B" transform="translate(74,67)"/>
<path d="M0 0 C4.17357682 -0.08183484 7.93762703 0.03785903 12 1 C18.04987263 2.29640128 23.09479419 1.96840194 29 0 C29.19335938 0.56589844 29.38671875 1.13179687 29.5859375 1.71484375 C29.97652344 2.81505859 29.97652344 2.81505859 30.375 3.9375 C30.63023438 4.66839844 30.88546875 5.39929687 31.1484375 6.15234375 C31.85271413 8.18682116 31.85271413 8.18682116 34 9 C34 11.97 34 14.94 34 18 C33.01 18.495 33.01 18.495 32 19 C31.505 17.515 31.505 17.515 31 16 C30.34 16.33 29.68 16.66 29 17 C27.865625 16.814375 26.73125 16.62875 25.5625 16.4375 C21.90129691 15.59492492 21.90129691 15.59492492 19 18 C17.125 17.6875 17.125 17.6875 15 17 C11.588509 16.21273285 8.50170582 15.89995126 5 16 C4.67 15.34 4.34 14.68 4 14 C4.99 14 5.98 14 7 14 C7.2165625 13.1028125 7.2165625 13.1028125 7.4375 12.1875 C7.8872439 10.43849596 8.42892341 8.71322977 9 7 C8.34 7 7.68 7 7 7 C7 6.34 7 5.68 7 5 C6.13375 5.309375 6.13375 5.309375 5.25 5.625 C2.48032433 6.08661261 1.35438733 5.42944945 -1 4 C-0.67 3.34 -0.34 2.68 0 2 C1.98 2.495 1.98 2.495 4 3 C4 2.34 4 1.68 4 1 C2.68 0.67 1.36 0.34 0 0 Z " fill="#C3B4A2" transform="translate(5,27)"/>
<path d="M0 0 C1.58367747 0.14204741 3.16693318 0.28880153 4.75 0.4375 C5.63171875 0.51871094 6.5134375 0.59992187 7.421875 0.68359375 C9.7008006 0.96328007 11.79209575 1.38669326 14 2 C17.55520829 3.07635772 17.55520829 3.07635772 20.9375 2 C23.84404087 0.59076806 25.89954825 1.39338988 29 2 C29.66 1.67 30.32 1.34 31 1 C33.3960396 8.18811881 33.3960396 8.18811881 31.75 11.5625 C28.0610535 13.49081294 25.47404843 12.9747025 21.4375 12.359375 C18.75110475 11.90276058 18.75110475 11.90276058 15 12 C13.32774271 11.69595322 11.65919896 11.36871088 10 11 C9.67 11.66 9.34 12.32 9 13 C8.01 12.67 7.02 12.34 6 12 C5.01 12.495 5.01 12.495 4 13 C1.875 12.5625 1.875 12.5625 0 12 C0 12.99 0 13.98 0 15 C-3.03898126 13.98700625 -4.12139167 13.5048111 -6 11 C-6.1875 8.3125 -6.1875 8.3125 -6 6 C-5.38125 5.7525 -4.7625 5.505 -4.125 5.25 C-1.62519797 3.77952822 -1.16683978 2.58596924 0 0 Z " fill="#D2AC8B" transform="translate(6,41)"/>
<path d="M0 0 C0.144375 0.61875 0.28875 1.2375 0.4375 1.875 C0.93152225 4.03258322 0.93152225 4.03258322 2 6 C0.64455078 6.34611328 0.64455078 6.34611328 -0.73828125 6.69921875 C-1.91777344 7.02535156 -3.09726562 7.35148437 -4.3125 7.6875 C-5.48425781 8.00074219 -6.65601563 8.31398438 -7.86328125 8.63671875 C-11.5276452 10.22932525 -12.19013104 11.55289574 -14 15 C-14.99 15.33 -15.98 15.66 -17 16 C-17.66 16.99 -18.32 17.98 -19 19 C-19 18.01 -19 17.02 -19 16 C-20.32 16 -21.64 16 -23 16 C-23 16.66 -23 17.32 -23 18 C-23.99 18 -24.98 18 -26 18 C-26 17.34 -26 16.68 -26 16 C-27.32 16 -28.64 16 -30 16 C-30.33 17.32 -30.66 18.64 -31 20 C-31 18.68 -31 17.36 -31 16 C-32.32 16 -33.64 16 -35 16 C-35 16.66 -35 17.32 -35 18 C-36.65 17.67 -38.3 17.34 -40 17 C-40 12.71 -40 8.42 -40 4 C-39.01 4 -38.02 4 -37 4 C-35.88625 3.87625 -35.88625 3.87625 -34.75 3.75 C-30.77782411 4.1111069 -28.36467228 5.88883308 -25 8 C-25 8.66 -25 9.32 -25 10 C-23.68 10 -22.36 10 -21 10 C-20.67 10.66 -20.34 11.32 -20 12 C-17.47266765 12.65555119 -17.47266765 12.65555119 -15 13 C-14.95875 12.401875 -14.9175 11.80375 -14.875 11.1875 C-13.55192854 7.87982135 -11.16194109 7.42597343 -8 6 C-7.278125 5.443125 -6.55625 4.88625 -5.8125 4.3125 C-4 3 -4 3 -1 3 C-0.67 2.01 -0.34 1.02 0 0 Z " fill="#C48663" transform="translate(40,59)"/>
<path d="M0 0 C2.72923388 -0.0270817 5.45819637 -0.04687847 8.1875 -0.0625 C8.95642578 -0.07087891 9.72535156 -0.07925781 10.51757812 -0.08789062 C14.48526789 -0.10491934 18.12571234 0.01395885 22 1 C22 1.66 22 2.32 22 3 C23.32 2.67 24.64 2.34 26 2 C26.33 2.66 26.66 3.32 27 4 C21.06 4.33 15.12 4.66 9 5 C10.83737827 7.27216848 10.83737827 7.27216848 13.6015625 7.1953125 C14.59929688 7.17210938 15.59703125 7.14890625 16.625 7.125 C17.62789062 7.10695313 18.63078125 7.08890625 19.6640625 7.0703125 C20.82035156 7.03550781 20.82035156 7.03550781 22 7 C22.33 7.99 22.66 8.98 23 10 C22.01 10 21.02 10 20 10 C20 10.99 20 11.98 20 13 C18.02 12.34 16.04 11.68 14 11 C14.33 11.99 14.66 12.98 15 14 C9.06 14 3.12 14 -3 14 C-2.67 12.02 -2.34 10.04 -2 8 C-2.33 7.01 -2.66 6.02 -3 5 C-2.34 4.34 -1.68 3.68 -1 3 C-0.67 2.01 -0.34 1.02 0 0 Z " fill="#9E6E57" transform="translate(31,82)"/>
<path d="M0 0 C2.31 0 4.62 0 7 0 C7 0.66 7 1.32 7 2 C8.32 2 9.64 2 11 2 C11 1.34 11 0.68 11 0 C14.3 0 17.6 0 21 0 C22 2 22 2 22 13 C14.74 13 7.48 13 0 13 C0.66 12.67 1.32 12.34 2 12 C2 11.34 2 10.68 2 10 C1.34 10 0.68 10 0 10 C0 8.02 0 6.04 0 4 C0.99 4 1.98 4 3 4 C3 3.34 3 2.68 3 2 C2.01 2 1.02 2 0 2 C0 1.34 0 0.68 0 0 Z " fill="#705345" transform="translate(74,83)"/>
<path d="M0 0 C1.65 0.99 3.3 1.98 5 3 C5 3.66 5 4.32 5 5 C4.01 5 3.02 5 2 5 C2 5.66 2 6.32 2 7 C2.99 7 3.98 7 5 7 C5 7.66 5 8.32 5 9 C5.66 9 6.32 9 7 9 C6.34 11.31 5.68 13.62 5 16 C6.32 16 7.64 16 9 16 C9 16.66 9 17.32 9 18 C7.35 18.33 5.7 18.66 4 19 C6.64 19.33 9.28 19.66 12 20 C12 20.66 12 21.32 12 22 C12.66 22 13.32 22 14 22 C13.42415568 24.38564077 12.77772405 26.66682784 12 29 C10.02 29 8.04 29 6 29 C5.7525 29.804375 5.505 30.60875 5.25 31.4375 C4.63125 32.7059375 4.63125 32.7059375 4 34 C2.02 34.495 2.02 34.495 0 35 C0 23.45 0 11.9 0 0 Z " fill="#BBA490" transform="translate(0,12)"/>
<path d="M0 0 C1.25361328 0.00322266 2.50722656 0.00644531 3.79882812 0.00976562 C5.76432617 0.02233398 5.76432617 0.02233398 7.76953125 0.03515625 C9.10481606 0.04017308 10.44010266 0.04473566 11.77539062 0.04882812 C15.04431598 0.0606293 18.31315116 0.07709328 21.58203125 0.09765625 C21.58203125 2.40765625 21.58203125 4.71765625 21.58203125 7.09765625 C20.92203125 7.09765625 20.26203125 7.09765625 19.58203125 7.09765625 C19.58203125 5.77765625 19.58203125 4.45765625 19.58203125 3.09765625 C18.95554688 3.18144531 18.3290625 3.26523438 17.68359375 3.3515625 C16.86632812 3.45339844 16.0490625 3.55523437 15.20703125 3.66015625 C14.39492187 3.76457031 13.5828125 3.86898437 12.74609375 3.9765625 C10.58203125 4.09765625 10.58203125 4.09765625 8.58203125 3.09765625 C8.25203125 4.08765625 7.92203125 5.07765625 7.58203125 6.09765625 C4.24869792 6.09765625 0.91536458 6.09765625 -2.41796875 6.09765625 C-3.07796875 6.26265625 -3.73796875 6.42765625 -4.41796875 6.59765625 C-6.41796875 7.09765625 -6.41796875 7.09765625 -9.41796875 7.09765625 C-10.07796875 6.43765625 -10.73796875 5.77765625 -11.41796875 5.09765625 C-12.40796875 4.76765625 -13.39796875 4.43765625 -14.41796875 4.09765625 C-14.41796875 4.75765625 -14.41796875 5.41765625 -14.41796875 6.09765625 C-15.73796875 6.09765625 -17.05796875 6.09765625 -18.41796875 6.09765625 C-18.41796875 5.10765625 -18.41796875 4.11765625 -18.41796875 3.09765625 C-19.07796875 2.76765625 -19.73796875 2.43765625 -20.41796875 2.09765625 C-19.65871094 2.03707031 -18.89945313 1.97648437 -18.1171875 1.9140625 C-17.12332031 1.83027344 -16.12945312 1.74648437 -15.10546875 1.66015625 C-14.11933594 1.57894531 -13.13320313 1.49773437 -12.1171875 1.4140625 C-0.05200489 -0.00023532 -0.05200489 -0.00023532 0 0 Z " fill="#7E625A" transform="translate(52.41796875,71.90234375)"/>
<path d="M0 0 C2.97 0 5.94 0 9 0 C9 0.66 9 1.32 9 2 C9.99 2 10.98 2 12 2 C12 1.34 12 0.68 12 0 C15.96 0 19.92 0 24 0 C24 1.32 24 2.64 24 4 C24.66 4 25.32 4 26 4 C26 2.68 26 1.36 26 0 C26.99 0 27.98 0 29 0 C29 0.99 29 1.98 29 3 C30.32 3 31.64 3 33 3 C33 2.34 33 1.68 33 1 C34.65 1 36.3 1 38 1 C38.495 1.99 38.495 1.99 39 3 C39.66 3.33 40.32 3.66 41 4 C40 5 40 5 38.17137146 5.12025452 C37.37417191 5.11803391 36.57697235 5.11581329 35.75561523 5.11352539 C34.85475693 5.11344986 33.95389862 5.11337433 33.02574158 5.11329651 C32.04658279 5.10813522 31.06742401 5.10297394 30.05859375 5.09765625 C29.06118668 5.0962413 28.0637796 5.09482635 27.03614807 5.09336853 C23.83656876 5.08775114 20.63705831 5.07519571 17.4375 5.0625 C15.27408955 5.05748724 13.11067801 5.05292395 10.94726562 5.04882812 C5.63148675 5.03777607 0.31574829 5.02102104 -5 5 C-5 3.68 -5 2.36 -5 1 C-2.525 1.495 -2.525 1.495 0 2 C0 1.34 0 0.68 0 0 Z " fill="#524542" transform="translate(5,75)"/>
<path d="M0 0 C3.96 0 7.92 0 12 0 C12 2.64 12 5.28 12 8 C11.34 8 10.68 8 10 8 C10.66 9.98 11.32 11.96 12 14 C9.69 14.33 7.38 14.66 5 15 C4.67 15.99 4.34 16.98 4 18 C4 16.68 4 15.36 4 14 C3.21625 14.185625 2.4325 14.37125 1.625 14.5625 C-1 15 -1 15 -3 14 C-3 13.01 -3 12.02 -3 11 C-2.01 11 -1.02 11 0 11 C0 10.01 0 9.02 0 8 C1.32 8 2.64 8 4 8 C3.34 6.02 2.68 4.04 2 2 C1.34 2 0.68 2 0 2 C0 1.34 0 0.68 0 0 Z " fill="#070403" transform="translate(43,0)"/>
<path d="M0 0 C3 1 3 1 5 3 C5.33 2.01 5.66 1.02 6 0 C6.99 0.33 7.98 0.66 9 1 C9 3.97 9 6.94 9 10 C8.01 10.495 8.01 10.495 7 11 C6.67 10.01 6.34 9.02 6 8 C5.01 8.495 5.01 8.495 4 9 C2.865625 8.814375 1.73125 8.62875 0.5625 8.4375 C-3.09870309 7.59492492 -3.09870309 7.59492492 -6 10 C-7.875 9.6875 -7.875 9.6875 -10 9 C-13.411491 8.21273285 -16.49829418 7.89995126 -20 8 C-20.33 7.34 -20.66 6.68 -21 6 C-19.68 6 -18.36 6 -17 6 C-16.731875 5.360625 -16.46375 4.72125 -16.1875 4.0625 C-15 2 -15 2 -12 1 C-9.18859911 1.42171013 -6.70119513 2.09960162 -4 3 C-1.85744207 2.61067144 -1.85744207 2.61067144 0 2 C0 1.34 0 0.68 0 0 Z " fill="#CAB198" transform="translate(30,35)"/>
<path d="M0 0 C0.99 0.99 1.98 1.98 3 3 C3 2.34 3 1.68 3 1 C3.66 1 4.32 1 5 1 C5 2.32 5 3.64 5 5 C6.65 4.34 8.3 3.68 10 3 C10.495 4.485 10.495 4.485 11 6 C13.01508358 6.73323796 13.01508358 6.73323796 15 7 C4.98568068 8.32937489 -4.94695444 7.94434552 -15.01171875 7.66015625 C-16.83444318 7.61332969 -18.65718223 7.56706933 -20.47993469 7.52134705 C-25.24258211 7.40037706 -30.00499358 7.27179099 -34.76739502 7.14154053 C-39.64103341 7.00962234 -44.51485834 6.88501474 -49.38867188 6.75976562 C-58.92597622 6.5136074 -68.46304702 6.25939133 -78 6 C-78 5.67 -78 5.34 -78 5 C-70.47862163 4.82967677 -62.95706552 4.67021619 -55.43530273 4.51782227 C-52.88381909 4.46490427 -50.33238318 4.40962402 -47.78100586 4.35180664 C-21.94629398 3.76937342 -21.94629398 3.76937342 -9.20288086 4.86352539 C-6.23475824 4.98999696 -3.86393633 4.73523872 -1 4 C-0.67 2.68 -0.34 1.36 0 0 Z " fill="#302E30" transform="translate(78,75)"/>
<path d="M0 0 C3.3 0 6.6 0 10 0 C9.67 1.65 9.34 3.3 9 5 C8.34 5 7.68 5 7 5 C7.99 6.32 8.98 7.64 10 9 C9.34 9 8.68 9 8 9 C7.67 10.65 7.34 12.3 7 14 C5.04196493 14.05389087 3.08351091 14.09274217 1.125 14.125 C0.03445312 14.14820312 -1.05609375 14.17140625 -2.1796875 14.1953125 C-5 14 -5 14 -7 12 C-2.125 9 -2.125 9 -1 9 C-0.67 6.03 -0.34 3.06 0 0 Z " fill="#C57A54" transform="translate(21,82)"/>
<path d="M0 0 C1.32 0.99 2.64 1.98 4 3 C5.2684375 3.2475 5.2684375 3.2475 6.5625 3.5 C9.38238954 4.07843888 10.1023549 4.92984171 12 7 C12.99 7.33 13.98 7.66 15 8 C16.31640625 9.8125 16.31640625 9.8125 17.5625 12 C19.21374548 15.08502827 19.21374548 15.08502827 22 17 C22 17.99 22 18.98 22 20 C21.01 19.67 20.02 19.34 19 19 C19 18.34 19 17.68 19 17 C17.68 17 16.36 17 15 17 C13.5 15.625 13.5 15.625 12 14 C8.87175153 12.01877597 6.65295818 11.90633441 3 12 C2.01 11.67 1.02 11.34 0 11 C0 7.37 0 3.74 0 0 Z " fill="#CF9A74" transform="translate(0,52)"/>
<path d="M0 0 C4.69485973 -0.85780345 9.86463272 -0.45537432 14 2 C14.33 2.99 14.66 3.98 15 5 C13.1875 7.6875 13.1875 7.6875 11 10 C10.34 10 9.68 10 9 10 C8.67 11.32 8.34 12.64 8 14 C7.01 14 6.02 14 5 14 C5 13.01 5 12.02 5 11 C4.21625 10.79375 3.4325 10.5875 2.625 10.375 C0 9 0 9 -1.4375 6.0625 C-2 3 -2 3 0 0 Z " fill="#F3A571" transform="translate(17,58)"/>
<path d="M0 0 C0.33 0.66 0.66 1.32 1 2 C3.32156597 2.40729228 5.6568787 2.74438677 8 3 C7.67 4.98 7.34 6.96 7 9 C6.34 9 5.68 9 5 9 C5.10699219 9.61488281 5.21398438 10.22976562 5.32421875 10.86328125 C5.44410156 11.67152344 5.56398438 12.47976562 5.6875 13.3125 C5.81511719 14.11300781 5.94273438 14.91351563 6.07421875 15.73828125 C6 18 6 18 4.51953125 19.79296875 C4.01808594 20.19128906 3.51664063 20.58960937 3 21 C2.67 20.34 2.34 19.68 2 19 C2.66 19 3.32 19 4 19 C4 18.01 4 17.02 4 16 C2.35 16 0.7 16 -1 16 C-0.67 15.01 -0.34 14.02 0 13 C-0.99 12.67 -1.98 12.34 -3 12 C-4.1875 8.4375 -4.1875 8.4375 -5 5 C-3.625 3.5 -3.625 3.5 -2 2 C-1.34 2 -0.68 2 0 2 C0 1.34 0 0.68 0 0 Z " fill="#5A524E" transform="translate(39,23)"/>
<path d="M0 0 C2.31 0 4.62 0 7 0 C7 0.66 7 1.32 7 2 C8.32 2 9.64 2 11 2 C11.33 2.66 11.66 3.32 12 4 C12.66 4 13.32 4 14 4 C14.33 6.64 14.66 9.28 15 12 C14.01 11.34 13.02 10.68 12 10 C9.66800612 9.92094936 7.33167378 9.91201231 5 10 C5 10.66 5 11.32 5 12 C6.32 11.67 7.64 11.34 9 11 C9.33 11.66 9.66 12.32 10 13 C6.7 13 3.4 13 0 13 C0.66 12.67 1.32 12.34 2 12 C2 11.34 2 10.68 2 10 C1.34 10 0.68 10 0 10 C0 8.02 0 6.04 0 4 C0.99 4 1.98 4 3 4 C3 3.34 3 2.68 3 2 C2.01 2 1.02 2 0 2 C0 1.34 0 0.68 0 0 Z " fill="#60493F" transform="translate(74,83)"/>
<path d="M0 0 C-0.99 0.495 -0.99 0.495 -2 1 C-1.34 2.32 -0.68 3.64 0 5 C0 4.34 0 3.68 0 3 C0.66 3 1.32 3 2 3 C2.66 4.98 3.32 6.96 4 9 C5.98 9 7.96 9 10 9 C10 10.32 10 11.64 10 13 C7.525 12.505 7.525 12.505 5 12 C4.67 12.66 4.34 13.32 4 14 C1.36 13.67 -1.28 13.34 -4 13 C-4.33 12.01 -4.66 11.02 -5 10 C-5.66 9.67 -6.32 9.34 -7 9 C-6.979375 7.88625 -6.95875 6.7725 -6.9375 5.625 C-6.73619282 2.16784079 -6.73619282 2.16784079 -8 0 C-5.13822943 -1.43088528 -3.06624227 -0.59991697 0 0 Z " fill="#2E2825" transform="translate(51,15)"/>
<path d="M0 0 C5.61 0 11.22 0 17 0 C17 0.99 17 1.98 17 3 C21.62 3 26.24 3 31 3 C31 3.33 31 3.66 31 4 C27.04 4.66 23.08 5.32 19 6 C19.99 6.33 20.98 6.66 22 7 C21.67 7.66 21.34 8.32 21 9 C18.36 8.67 15.72 8.34 13 8 C13 8.66 13 9.32 13 10 C11.02 10 9.04 10 7 10 C6.34 8.68 5.68 7.36 5 6 C9.75 7.875 9.75 7.875 12 9 C12 8.01 12 7.02 12 6 C12.99 6 13.98 6 15 6 C14.67 5.34 14.34 4.68 14 4 C10.04 4 6.08 4 2 4 C1.34 2.68 0.68 1.36 0 0 Z " fill="#926751" transform="translate(39,86)"/>
<path d="M0 0 C4.95 0 9.9 0 15 0 C14.01 0.495 14.01 0.495 13 1 C13 1.66 13 2.32 13 3 C12.34 3 11.68 3 11 3 C11 3.66 11 4.32 11 5 C9.68 5.33 8.36 5.66 7 6 C6.8453125 7.175625 6.8453125 7.175625 6.6875 8.375 C6 11 6 11 3 13 C2.01 13 1.02 13 0 13 C0 12.34 0 11.68 0 11 C-0.99 10.34 -1.98 9.68 -3 9 C-2.67 8.01 -2.34 7.02 -2 6 C0.0625 5.3125 0.0625 5.3125 2 5 C1.34 3.35 0.68 1.7 0 0 Z " fill="#3D3735" transform="translate(17,0)"/>
<path d="M0 0 C2.31 0 4.62 0 7 0 C7 1.32 7 2.64 7 4 C5.68 4.33 4.36 4.66 3 5 C3.66 5 4.32 5 5 5 C5 5.66 5 6.32 5 7 C5.66 7 6.32 7 7 7 C7 8.98 7 10.96 7 13 C3.52674819 14.1577506 0.63932552 14.06866652 -3 14 C-2.814375 13.071875 -2.62875 12.14375 -2.4375 11.1875 C-1.75876119 7.98656229 -1.75876119 7.98656229 -3 5 C-2.34 4.34 -1.68 3.68 -1 3 C-0.67 2.01 -0.34 1.02 0 0 Z " fill="#B47758" transform="translate(31,82)"/>
<path d="M0 0 C1.07765625 0.01804688 2.1553125 0.03609375 3.265625 0.0546875 C4.49539062 0.08949219 4.49539062 0.08949219 5.75 0.125 C5.85414268 3.99780581 5.36989062 6.58148927 3.75 10.125 C3.09 10.125 2.43 10.125 1.75 10.125 C1.75 12.105 1.75 14.085 1.75 16.125 C-0.24097846 13.13853231 -1.19124926 10.52812738 -2.25 7.125 C-2.58 7.125 -2.91 7.125 -3.25 7.125 C-3.58 8.775 -3.91 10.425 -4.25 12.125 C-4.58 12.125 -4.91 12.125 -5.25 12.125 C-5.25 8.825 -5.25 5.525 -5.25 2.125 C-6.9 2.125 -8.55 2.125 -10.25 2.125 C-6.7733662 -0.01836161 -4.03770805 -0.08777626 0 0 Z " fill="#A37B66" transform="translate(90.25,60.875)"/>
<path d="M0 0 C-0.66 1.32 -1.32 2.64 -2 4 C-2.53826416 3.83250244 -3.07652832 3.66500488 -3.63110352 3.49243164 C-6.47989576 2.90024222 -8.99513986 2.98889676 -11.90234375 3.12109375 C-13.03994141 3.16943359 -14.17753906 3.21777344 -15.34960938 3.26757812 C-16.53361328 3.32365234 -17.71761719 3.37972656 -18.9375 3.4375 C-21.27991444 3.54112401 -23.62236141 3.64401614 -25.96484375 3.74609375 C-27.52126587 3.81848267 -27.52126587 3.81848267 -29.10913086 3.89233398 C-31.74304773 3.9904302 -34.3646284 4.01970088 -37 4 C-37 4.66 -37 5.32 -37 6 C-38.32 5.67 -39.64 5.34 -41 5 C-36.99156111 1.13085049 -33.77236551 0.35963888 -28.375 0.25 C-27.64804932 0.22107666 -26.92109863 0.19215332 -26.17211914 0.16235352 C-17.45353452 -0.14198753 -8.72205976 -0.08616744 0 0 Z " fill="#9F725D" transform="translate(74,67)"/>
<path d="M0 0 C0 0.66 0 1.32 0 2 C0.99 1.67 1.98 1.34 3 1 C2.08358378 3.29104056 1.30881685 4.75057101 -0.625 6.3125 C-3.63512847 7.18385298 -5.94070462 6.80292852 -9 6.2890625 C-11.32301391 5.90463672 -11.32301391 5.90463672 -15 6 C-15.99 5.34 -16.98 4.68 -18 4 C-18 3.34 -18 2.68 -18 2 C-11.758388 -0.62804716 -6.70774965 -2.23591655 0 0 Z " fill="#DAAF88" transform="translate(36,47)"/>
<path d="M0 0 C0.495 1.98 0.495 1.98 1 4 C-11.34354116 5.48973773 -23.57114451 6.16999954 -36 6 C-36 5.34 -36 4.68 -36 4 C-26.4440188 2.69113555 -16.96381384 1.71636143 -7.328125 1.24609375 C-4.7155463 1.05291011 -2.48966326 0.76073044 0 0 Z " fill="#B3896E" transform="translate(95,57)"/>
<path d="M0 0 C6.58417279 0.41083508 12.73654002 0.86775831 19 3 C19.99 3.33 20.98 3.66 22 4 C21.67 5.32 21.34 6.64 21 8 C21 7.01 21 6.02 21 5 C19.68 5 18.36 5 17 5 C17 5.66 17 6.32 17 7 C16.01 7 15.02 7 14 7 C14 6.34 14 5.68 14 5 C12.68 5 11.36 5 10 5 C9.67 6.32 9.34 7.64 9 9 C9 7.68 9 6.36 9 5 C7.68 5 6.36 5 5 5 C5 5.66 5 6.32 5 7 C3.35 6.67 1.7 6.34 0 6 C0 4.02 0 2.04 0 0 Z " fill="#9B6D59" transform="translate(0,70)"/>
<path d="M0 0 C2.125 0.9375 2.125 0.9375 4 2 C4 2.66 4 3.32 4 4 C4.33 3.34 4.66 2.68 5 2 C5.66 2 6.32 2 7 2 C6.67 3.65 6.34 5.3 6 7 C4.02 7 2.04 7 0 7 C-0.2475 7.804375 -0.495 8.60875 -0.75 9.4375 C-1.1625 10.283125 -1.575 11.12875 -2 12 C-3.32 12.33 -4.64 12.66 -6 13 C-6 9.04 -6 5.08 -6 1 C-4.68 1.99 -3.36 2.98 -2 4 C-2 3.01 -2 2.02 -2 1 C-1.34 0.67 -0.68 0.34 0 0 Z " fill="#332925" transform="translate(6,34)"/>
<path d="M0 0 C0.99 0.33 1.98 0.66 3 1 C4.39439664 1.06665376 5.79169875 1.08538199 7.1875 1.0625 C8.445625 1.041875 9.70375 1.02125 11 1 C10.67 2.65 10.34 4.3 10 6 C6.20181621 6.93739454 3.06866386 6.97452395 -0.8125 6.5625 C-5.58041252 6.10280015 -10.21318393 5.90794584 -15 6 C-14.01 5.67 -13.02 5.34 -12 5 C-11.67 4.01 -11.34 3.02 -11 2 C-7.7 2.66 -4.4 3.32 -1 4 C-0.67 2.68 -0.34 1.36 0 0 Z " fill="#3F3D3F" transform="translate(61,74)"/>
<path d="M0 0 C2.6062064 0.63180761 4.48923558 0.14331611 7.0625 -0.5 C6.7325 0.82 6.4025 2.14 6.0625 3.5 C5.0725 3.5 4.0825 3.5 3.0625 3.5 C3.0625 4.16 3.0625 4.82 3.0625 5.5 C-1.6875 6.625 -1.6875 6.625 -3.9375 5.5 C-4.2675 7.15 -4.5975 8.8 -4.9375 10.5 C-7.85335867 9.04207067 -8.51146059 6.35207882 -9.9375 3.5 C-9.2775 3.5 -8.6175 3.5 -7.9375 3.5 C-7.2775 2.51 -6.6175 1.52 -5.9375 0.5 C-3.65995733 -0.41101707 -2.38497208 -0.61547667 0 0 Z " fill="#0C0A08" transform="translate(52.9375,27.5)"/>
<path d="M0 0 C0.66 0 1.32 0 2 0 C2.66 1.98 3.32 3.96 4 6 C5.65 6 7.3 6 9 6 C9 7.32 9 8.64 9 10 C3.555 11.485 3.555 11.485 -2 13 C-2.33 11.68 -2.66 10.36 -3 9 C-2.34 8.67 -1.68 8.34 -1 8 C-1.66 7.34 -2.32 6.68 -3 6 C-2 3 -2 3 0 0 Z " fill="#CC9C79" transform="translate(39,48)"/>
<path d="M0 0 C2.97 0 5.94 0 9 0 C9 2.97 9 5.94 9 9 C5.8035914 10.06546953 3.34252724 10.07427838 0 10 C0.33 9.2575 0.66 8.515 1 7.75 C2.22782871 4.86116688 2.22782871 4.86116688 2 1 C1.34 0.67 0.68 0.34 0 0 Z " fill="#C27A55" transform="translate(12,82)"/>
<path d="M0 0 C-2.98433549 1.70393456 -5.21680446 2.27152342 -8.640625 2.37890625 C-9.53958496 2.41250244 -10.43854492 2.44609863 -11.36474609 2.48071289 C-12.31687988 2.50770264 -13.26901367 2.53469238 -14.25 2.5625 C-16.22660438 2.63427248 -18.20316716 2.70719935 -20.1796875 2.78125 C-21.64873535 2.83345703 -21.64873535 2.83345703 -23.14746094 2.88671875 C-27.22768358 3.04875429 -31.30052894 3.29478937 -35.375 3.5625 C-36.66148438 3.64628906 -37.94796875 3.73007813 -39.2734375 3.81640625 C-40.17320313 3.87699219 -41.07296875 3.93757813 -42 4 C-42 3.34 -42 2.68 -42 2 C-38.66686835 1.66463076 -35.33345022 1.33218623 -32 1 C-31.06397949 0.90557617 -30.12795898 0.81115234 -29.16357422 0.71386719 C-26.25574677 0.42442721 -23.34684075 0.14877494 -20.4375 -0.125 C-19.46103516 -0.22425781 -18.48457031 -0.32351562 -17.47851562 -0.42578125 C-11.4452114 -0.98270164 -5.99824975 -0.87900048 0 0 Z " fill="#A97B63" transform="translate(81,65)"/>
<path d="M0 0 C1.65 0.99 3.3 1.98 5 3 C5 3.66 5 4.32 5 5 C4.01 5 3.02 5 2 5 C2 5.66 2 6.32 2 7 C2.99 7 3.98 7 5 7 C5 7.66 5 8.32 5 9 C5.66 9 6.32 9 7 9 C6.3125 11.875 6.3125 11.875 5 15 C3.35 15.66 1.7 16.32 0 17 C0 11.39 0 5.78 0 0 Z " fill="#3F3935" transform="translate(0,12)"/>
<path d="M0 0 C0.99 0 1.98 0 3 0 C3 4.62 3 9.24 3 14 C-3.0546875 14.1953125 -3.0546875 14.1953125 -5 14 C-5.66 13.34 -6.32 12.68 -7 12 C-2.125 9 -2.125 9 -1 9 C-0.67 6.03 -0.34 3.06 0 0 Z " fill="#D9A681" transform="translate(21,82)"/>
<path d="M0 0 C1.65 0 3.3 0 5 0 C5 0.99 5 1.98 5 3 C4.34 3 3.68 3 3 3 C4.9254644 5.2236068 4.9254644 5.2236068 8 6 C7.67 6.66 7.34 7.32 7 8 C6.34 7.67 5.68 7.34 5 7 C5 7.66 5 8.32 5 9 C5.66 9.33 6.32 9.66 7 10 C6.34 10 5.68 10 5 10 C5 10.66 5 11.32 5 12 C6.32 11.01 7.64 10.02 9 9 C9.66 9.33 10.32 9.66 11 10 C10.67 11.32 10.34 12.64 10 14 C8.35 14 6.7 14 5 14 C4.34 12.35 3.68 10.7 3 9 C2.01 9 1.02 9 0 9 C0 6.03 0 3.06 0 0 Z " fill="#0A0806" transform="translate(38,39)"/>
<path d="M0 0 C3.96 0 7.92 0 12 0 C12 1.98 12 3.96 12 6 C10.02 6.33 8.04 6.66 6 7 C6 8.65 6 10.3 6 12 C5.34 12 4.68 12 4 12 C4.04125 11.0925 4.0825 10.185 4.125 9.25 C4.00468444 6.1217954 3.6085292 4.61385994 2 2 C1.34 2 0.68 2 0 2 C0 1.34 0 0.68 0 0 Z " fill="#2C2825" transform="translate(43,0)"/>
<path d="M0 0 C1.32 1.32 2.64 2.64 4 4 C3.34 4.66 2.68 5.32 2 6 C2.99 7.485 2.99 7.485 4 9 C-2.625 13 -2.625 13 -6 13 C-5.34 11.68 -4.68 10.36 -4 9 C-4.66 9 -5.32 9 -6 9 C-5.52797514 4.75177626 -3.03344482 2.80010291 0 0 Z " fill="#DDA377" transform="translate(35,53)"/>
<path d="M0 0 C3.3 0 6.6 0 10 0 C10.33 1.32 10.66 2.64 11 4 C10.34 4.66 9.68 5.32 9 6 C9.3185177 8.10820797 9.3185177 8.10820797 10 10 C8.0625 9.6875 8.0625 9.6875 6 9 C5.67 8.01 5.34 7.02 5 6 C5.33 5.34 5.66 4.68 6 4 C4.35 4 2.7 4 1 4 C0.67 4.99 0.34 5.98 0 7 C0 4.69 0 2.38 0 0 Z " fill="#76594A" transform="translate(85,83)"/>
<path d="M0 0 C-0.99 0.495 -0.99 0.495 -2 1 C-2 1.66 -2 2.32 -2 3 C-2.99 3 -3.98 3 -5 3 C-5 3.99 -5 4.98 -5 6 C-8.03898126 4.98700625 -9.12139167 4.5048111 -11 2 C-11.1875 -0.6875 -11.1875 -0.6875 -11 -3 C-6.06995512 -4.74001584 -3.98367078 -3.05723572 0 0 Z " fill="#CFA17F" transform="translate(11,50)"/>
<path d="M0 0 C1.91789713 0.28346278 3.83429183 0.5771028 5.75 0.875 C7.35101563 1.11863281 7.35101563 1.11863281 8.984375 1.3671875 C11.67708871 1.93223882 13.63572439 2.63422914 16 4 C16 4.66 16 5.32 16 6 C16.99 6.33 17.98 6.66 19 7 C18.01 7.495 18.01 7.495 17 8 C15.32694543 7.34953045 13.66144496 6.67957551 12 6 C9.90550831 5.57426894 7.79996789 5.19999506 5.6875 4.875 C4.08455078 4.62363281 4.08455078 4.62363281 2.44921875 4.3671875 C1.64097656 4.24601562 0.83273438 4.12484375 0 4 C0 2.68 0 1.36 0 0 Z " fill="#B47859" transform="translate(0,66)"/>
<path d="M0 0 C0.144375 0.61875 0.28875 1.2375 0.4375 1.875 C0.93152225 4.03258322 0.93152225 4.03258322 2 6 C0.64455078 6.34611328 0.64455078 6.34611328 -0.73828125 6.69921875 C-2.50751953 7.18841797 -2.50751953 7.18841797 -4.3125 7.6875 C-6.07013672 8.15736328 -6.07013672 8.15736328 -7.86328125 8.63671875 C-11.46900132 10.20383744 -12.38665133 11.48790884 -14 15 C-15.32 14.34 -16.64 13.68 -18 13 C-17.01 13 -16.02 13 -15 13 C-14.95875 12.401875 -14.9175 11.80375 -14.875 11.1875 C-13.55192854 7.87982135 -11.16194109 7.42597343 -8 6 C-7.278125 5.443125 -6.55625 4.88625 -5.8125 4.3125 C-4 3 -4 3 -1 3 C-0.67 2.01 -0.34 1.02 0 0 Z " fill="#D08C65" transform="translate(40,59)"/>
<path d="M0 0 C2.31 0 4.62 0 7 0 C7 0.99 7 1.98 7 3 C6.34 3 5.68 3 5 3 C5 4.98 5 6.96 5 9 C3.35 9.33 1.7 9.66 0 10 C0 6.7 0 3.4 0 0 Z " fill="#3E3835" transform="translate(0,0)"/>
<path d="M0 0 C4.95 0 9.9 0 15 0 C14.01 0.495 14.01 0.495 13 1 C13 1.66 13 2.32 13 3 C12.34 3 11.68 3 11 3 C11 3.66 11 4.32 11 5 C9.02 5.33 7.04 5.66 5 6 C5.33 4.68 5.66 3.36 6 2 C5.67 2.33 5.34 2.66 5 3 C4.34 3 3.68 3 3 3 C2.67 3.66 2.34 4.32 2 5 C1.34 3.35 0.68 1.7 0 0 Z " fill="#665E59" transform="translate(17,0)"/>
<path d="M0 0 C-1.17138167 3.51414502 -1.84558112 4.17375749 -5 6 C-8.75 6.6875 -8.75 6.6875 -12 7 C-11.375 4.625 -11.375 4.625 -10 2 C-6.38577643 0.35002837 -4.00165194 0 0 0 Z " fill="#C57C55" transform="translate(38,67)"/>
<path d="M0 0 C0.66 0.33 1.32 0.66 2 1 C2.625 3.0625 2.625 3.0625 3 5 C2.34 5 1.68 5 1 5 C1 5.99 1 6.98 1 8 C1.66 8 2.32 8 3 8 C2.75 11.375 2.75 11.375 2 15 C-0.0625 16.4375 -0.0625 16.4375 -2 17 C-2 15.35 -2 13.7 -2 12 C-1.34 11.67 -0.68 11.34 0 11 C-0.99 11 -1.98 11 -3 11 C-3 10.34 -3 9.68 -3 9 C-2.34 9 -1.68 9 -1 9 C-1.020625 7.700625 -1.04125 6.40125 -1.0625 5.0625 C-1.08399454 3.70834367 -1.07148199 2.35243917 -1 1 C-0.67 0.67 -0.34 0.34 0 0 Z " fill="#3E3431" transform="translate(45,34)"/>
<path d="M0 0 C2.64 0 5.28 0 8 0 C7.34 0.66 6.68 1.32 6 2 C4.68 2 3.36 2 2 2 C3.66666667 2.33333333 5.33333333 2.66666667 7 3 C8.66666667 3.33333333 10.33333333 3.66666667 12 4 C8.09971775 6.60018816 4.52565431 6.15085514 0 6 C0 4.02 0 2.04 0 0 Z " fill="#A16D54" transform="translate(0,83)"/>
<path d="M0 0 C2.4375 0.375 2.4375 0.375 5 1 C5.33 1.66 5.66 2.32 6 3 C4.35 4.65 2.7 6.3 1 8 C-1.31 7.34 -3.62 6.68 -6 6 C-5.195625 5.38125 -4.39125 4.7625 -3.5625 4.125 C-0.96125481 2.25835959 -0.96125481 2.25835959 0 0 Z " fill="#0B0907" transform="translate(55,41)"/>
<path d="M0 0 C-0.99 0.495 -0.99 0.495 -2 1 C-1.34 2.32 -0.68 3.64 0 5 C0 4.34 0 3.68 0 3 C0.66 3 1.32 3 2 3 C2.66 4.65 3.32 6.3 4 8 C3.01 8.495 3.01 8.495 2 9 C2 8.34 2 7.68 2 7 C1.01 7 0.02 7 -1 7 C-1.33 7.66 -1.66 8.32 -2 9 C-2 8.34 -2 7.68 -2 7 C-2.99 7 -3.98 7 -5 7 C-5 6.34 -5 5.68 -5 5 C-5.66 4.34 -6.32 3.68 -7 3 C-7.33 2.01 -7.66 1.02 -8 0 C-5.13822943 -1.43088528 -3.06624227 -0.59991697 0 0 Z " fill="#433D3B" transform="translate(51,15)"/>
<path d="M0 0 C1.32 0.33 2.64 0.66 4 1 C4.33 3.97 4.66 6.94 5 10 C4.34 10 3.68 10 3 10 C1 7 1 7 1 4 C0.34 4 -0.32 4 -1 4 C-0.67 4.99 -0.34 5.98 0 7 C-0.99 6.67 -1.98 6.34 -3 6 C-3 4.68 -3 3.36 -3 2 C-2.01 1.34 -1.02 0.68 0 0 Z " fill="#9E9790" transform="translate(52,14)"/>
<path d="M0 0 C0.99 0.33 1.98 0.66 3 1 C3 1.66 3 2.32 3 3 C2.34 3 1.68 3 1 3 C1.66 4.98 2.32 6.96 3 9 C1.34385343 9.38218767 -0.32457024 9.71395102 -2 10 C-3 9 -3 9 -3.25 5.5625 C-3.1675 4.386875 -3.085 3.21125 -3 2 C-2.01 1.34 -1.02 0.68 0 0 Z " fill="#090705" transform="translate(52,5)"/>
<path d="M0 0 C0.33 0.66 0.66 1.32 1 2 C2.65 2 4.3 2 6 2 C6 3.32 6 4.64 6 6 C5.01 6.33 4.02 6.66 3 7 C3 6.34 3 5.68 3 5 C0.02934491 5.34227572 0.02934491 5.34227572 -3 6 C-3.33 6.66 -3.66 7.32 -4 8 C-4.33 7.01 -4.66 6.02 -5 5 C-3.625 3.5 -3.625 3.5 -2 2 C-1.34 2 -0.68 2 0 2 C0 1.34 0 0.68 0 0 Z " fill="#191513" transform="translate(39,23)"/>
<path d="M0 0 C2.375 0.3125 2.375 0.3125 5 1 C7 4 7 4 7 7 C6.34 7 5.68 7 5 7 C5 8.98 5 10.96 5 13 C2.2946129 8.94191935 0 4.95110601 0 0 Z " fill="#A0745F" transform="translate(87,64)"/>
<path d="M0 0 C0.33 0.66 0.66 1.32 1 2 C1.99 2 2.98 2 4 2 C4.33 1.34 4.66 0.68 5 0 C5 0.66 5 1.32 5 2 C5.99 2.33 6.98 2.66 8 3 C6.68 3 5.36 3 4 3 C4 4.65 4 6.3 4 8 C2.68 7.67 1.36 7.34 0 7 C0 6.34 0 5.68 0 5 C-1.98 5.33 -3.96 5.66 -6 6 C-5.67 5.01 -5.34 4.02 -5 3 C-3.35 3.33 -1.7 3.66 0 4 C-0.33 3.01 -0.66 2.02 -1 1 C-0.67 0.67 -0.34 0.34 0 0 Z " fill="#302722" transform="translate(48,49)"/>
<path d="M0 0 C4.29 0 8.58 0 13 0 C13 1.65 13 3.3 13 5 C10.36 5 7.72 5 5 5 C4.67 3.68 4.34 2.36 4 1 C2.68 0.67 1.36 0.34 0 0 Z " fill="#896350" transform="translate(60,82)"/>
<path d="M0 0 C1.98 0 3.96 0 6 0 C6.33 0.99 6.66 1.98 7 3 C9.97 3.33 12.94 3.66 16 4 C16 4.33 16 4.66 16 5 C10.72 5 5.44 5 0 5 C0 3.35 0 1.7 0 0 Z " fill="#A36D53" transform="translate(0,91)"/>
<path d="M0 0 C3.76570556 0.66348146 6.53145505 2.35702341 9.75 4.375 C10.73484375 4.98085937 11.7196875 5.58671875 12.734375 6.2109375 C13.85585938 7.09652344 13.85585938 7.09652344 15 8 C15 8.99 15 9.98 15 11 C14.01 10.67 13.02 10.34 12 10 C12 9.34 12 8.68 12 8 C10.68 8 9.36 8 8 8 C6.5625 6.6875 6.5625 6.6875 5 5 C4.113125 4.484375 3.22625 3.96875 2.3125 3.4375 C1.549375 2.963125 0.78625 2.48875 0 2 C0 1.34 0 0.68 0 0 Z " fill="#DC8D63" transform="translate(7,61)"/>
<path d="M0 0 C3 2 3 2 4 5 C3.34 5 2.68 5 2 5 C1.67 5.66 1.34 6.32 1 7 C-0.97888961 7.72693904 -2.97954558 8.39816251 -5 9 C-5.66 8.34 -6.32 7.68 -7 7 C-6.34 6.01 -5.68 5.02 -5 4 C-4.34 4 -3.68 4 -3 4 C-2.67 3.34 -2.34 2.68 -2 2 C-1.34 2 -0.68 2 0 2 C0 1.34 0 0.68 0 0 Z " fill="#C6906F" transform="translate(47,55)"/>
<path d="M0 0 C2.12038635 2.61514317 4.13091744 5.19637616 6 8 C4.6875 10 4.6875 10 3 12 C2.01 12 1.02 12 0 12 C0 8.04 0 4.08 0 0 Z " fill="#52443D" transform="translate(0,35)"/>
<path d="M0 0 C2.5 1.375 2.5 1.375 5 3 C5 3.66 5 4.32 5 5 C4.01 5 3.02 5 2 5 C2 5.66 2 6.32 2 7 C2.99 7 3.98 7 5 7 C5 7.66 5 8.32 5 9 C5.66 9 6.32 9 7 9 C6.67 9.66 6.34 10.32 6 11 C3.03 10.505 3.03 10.505 0 10 C0 6.7 0 3.4 0 0 Z " fill="#272220" transform="translate(0,12)"/>
<path d="M0 0 C1.64666203 0.1135629 3.29236082 0.24117381 4.9375 0.375 C5.85402344 0.44460937 6.77054687 0.51421875 7.71484375 0.5859375 C8.84599609 0.79089844 8.84599609 0.79089844 10 1 C10.33 1.66 10.66 2.32 11 3 C10.34 3 9.68 3 9 3 C8.67 4.32 8.34 5.64 8 7 C8 5.68 8 4.36 8 3 C6.68 3 5.36 3 4 3 C4 3.66 4 4.32 4 5 C2.35 4.67 0.7 4.34 -1 4 C-0.67 2.68 -0.34 1.36 0 0 Z " fill="#81655C" transform="translate(1,72)"/>
<path d="M0 0 C1.32 0 2.64 0 4 0 C3.43628586 3.26954202 2.50037734 4.82575883 0 7 C-0.33 6.01 -0.66 5.02 -1 4 C-2.98 4.33 -4.96 4.66 -7 5 C-7 4.34 -7 3.68 -7 3 C-3.535 2.505 -3.535 2.505 0 2 C0 1.34 0 0.68 0 0 Z " fill="#413D3E" transform="translate(81,64)"/>
<path d="M0 0 C0.66 0.99 1.32 1.98 2 3 C0.71937515 4.7074998 -0.61767557 6.37373596 -2 8 C-2.66 8 -3.32 8 -4 8 C-4.33 9.32 -4.66 10.64 -5 12 C-5.99 12 -6.98 12 -8 12 C-6.63055898 9.05043472 -5.12169591 6.47531189 -3 4 C-2.34 4 -1.68 4 -1 4 C-0.67 2.68 -0.34 1.36 0 0 Z " fill="#EFA97B" transform="translate(30,60)"/>
<path d="M0 0 C-1.01434119 2.53585299 -1.65018872 3.78136795 -4 5.25 C-6 6 -6 6 -8 6 C-8.33 4.35 -8.66 2.7 -9 1 C-5.8035914 -0.06546953 -3.34252724 -0.07427838 0 0 Z " fill="#D4A884" transform="translate(39,48)"/>
<path d="M0 0 C1.65 0.33 3.3 0.66 5 1 C4.01 1.495 4.01 1.495 3 2 C3 2.66 3 3.32 3 4 C2.34 4 1.68 4 1 4 C1.33 5.32 1.66 6.64 2 8 C1.34 8 0.68 8 0 8 C-0.33 8.66 -0.66 9.32 -1 10 C-1.66 9.67 -2.32 9.34 -3 9 C-3 8.01 -3 7.02 -3 6 C-2.34 6 -1.68 6 -1 6 C-0.67 4.02 -0.34 2.04 0 0 Z " fill="#8D8178" transform="translate(49,33)"/>
<path d="M0 0 C1.32 0 2.64 0 4 0 C4.33 1.32 4.66 2.64 5 4 C4.34 4 3.68 4 3 4 C2.67 5.65 2.34 7.3 2 9 C-0.91585867 7.54207067 -1.57396059 4.85207882 -3 2 C-2.34 2 -1.68 2 -1 2 C-0.67 1.34 -0.34 0.68 0 0 Z " fill="#1E1B1A" transform="translate(46,29)"/>
<path d="M0 0 C2.9375 0.75 2.9375 0.75 6 2 C6.875 4.125 6.875 4.125 7 6 C3.98968256 6.93423645 3.13349732 7.04449911 0 6 C0 4.02 0 2.04 0 0 Z " fill="#C98F6C" transform="translate(0,57)"/>
<path d="M0 0 C0 1.32 0 2.64 0 4 C-6.52307692 4.36923077 -6.52307692 4.36923077 -8.9375 2.5 C-9.4634375 1.7575 -9.4634375 1.7575 -10 1 C-3.375 -1.125 -3.375 -1.125 0 0 Z " fill="#655B55" transform="translate(61,38)"/>
<path d="M0 0 C2.00240549 0.31856451 4.00211562 0.65421232 6 1 C7.0828125 1.185625 7.0828125 1.185625 8.1875 1.375 C10.42281839 2.14579944 11.41190318 3.27380781 13 5 C13.99 5.66 14.98 6.32 16 7 C13 8 13 8 9.8125 6.5625 C8.884375 6.046875 7.95625 5.53125 7 5 C7 4.34 7 3.68 7 3 C6.401875 2.87625 5.80375 2.7525 5.1875 2.625 C3 2 3 2 0 0 Z " fill="#C47953" transform="translate(9,67)"/>
<path d="M0 0 C0.99 0.33 1.98 0.66 3 1 C2.67 1.66 2.34 2.32 2 3 C3.98 3 5.96 3 8 3 C8 3.99 8 4.98 8 6 C5.125 6.625 5.125 6.625 2 7 C0 5 0 5 -0.125 2.375 C-0.08375 1.59125 -0.0425 0.8075 0 0 Z " fill="#15110F" transform="translate(44,19)"/>
<path d="M0 0 C2.64 0 5.28 0 8 0 C8 1.32 8 2.64 8 4 C5.36 4 2.72 4 0 4 C0 2.68 0 1.36 0 0 Z " fill="#413E41" transform="translate(0,76)"/>
<path d="M0 0 C0.99 0 1.98 0 3 0 C2.67 1.32 2.34 2.64 2 4 C2.66 4 3.32 4 4 4 C4 4.66 4 5.32 4 6 C3.34 6 2.68 6 2 6 C1.67 6.66 1.34 7.32 1 8 C0.34 7.34 -0.32 6.68 -1 6 C-1.99 6 -2.98 6 -4 6 C-2.1875 3 -2.1875 3 0 0 Z " fill="#C6A68A" transform="translate(6,41)"/>
<path d="M0 0 C1.98 0 3.96 0 6 0 C6.33 0.66 6.66 1.32 7 2 C5.40139351 2.55786268 3.79582095 3.09579568 2.1875 3.625 C1.29417969 3.92664063 0.40085937 4.22828125 -0.51953125 4.5390625 C-3 5 -3 5 -6 3 C-4.02 2.67 -2.04 2.34 0 2 C0 1.34 0 0.68 0 0 Z " fill="#BE8465" transform="translate(42,63)"/>
<path d="M0 0 C2.8125 0.125 2.8125 0.125 6 1 C7.875 4.0625 7.875 4.0625 9 7 C5.13066838 6.42676569 2.84777943 4.61046448 0 2 C0 1.34 0 0.68 0 0 Z " fill="#E09A6E" transform="translate(9,59)"/>
<path d="M0 0 C1.65 0 3.3 0 5 0 C5 0.99 5 1.98 5 3 C4.34 3 3.68 3 3 3 C3 4.65 3 6.3 3 8 C2.01 8.33 1.02 8.66 0 9 C0 6.03 0 3.06 0 0 Z " fill="#2A231F" transform="translate(38,39)"/>
<path d="M0 0 C6.6 0 13.2 0 20 0 C20 0.33 20 0.66 20 1 C17.03 1 14.06 1 11 1 C11 1.66 11 2.32 11 3 C9.68 3 8.36 3 7 3 C7 2.34 7 1.68 7 1 C4.69 1 2.38 1 0 1 C0 0.67 0 0.34 0 0 Z " fill="#493E3B" transform="translate(74,82)"/>
<path d="M0 0 C0.33 0.99 0.66 1.98 1 3 C-5.625 7 -5.625 7 -9 7 C-4.53191489 0 -4.53191489 0 0 0 Z " fill="#DD986D" transform="translate(38,59)"/>
<path d="M0 0 C1.48199902 0.44909061 2.96055236 0.90956564 4.4375 1.375 C5.26121094 1.63023438 6.08492188 1.88546875 6.93359375 2.1484375 C9 3 9 3 10 5 C6.7 4.67 3.4 4.34 0 4 C0 2.68 0 1.36 0 0 Z " fill="#A7785F" transform="translate(0,66)"/>
<path d="M0 0 C2.125 0.9375 2.125 0.9375 4 2 C2.6875 4 2.6875 4 1 6 C0.01 6 -0.98 6 -2 6 C-2 4.35 -2 2.7 -2 1 C-1.34 0.67 -0.68 0.34 0 0 Z " fill="#3B322F" transform="translate(51,40)"/>
<path d="M0 0 C1.65 0 3.3 0 5 0 C5 1.98 5 3.96 5 6 C3.02 6.33 1.04 6.66 -1 7 C-1 6.34 -1 5.68 -1 5 C-0.34 5 0.32 5 1 5 C0.67 3.35 0.34 1.7 0 0 Z " fill="#564F4C" transform="translate(50,0)"/>
<path d="M0 0 C-1.27597072 2.55194143 -2.60085265 3.46721142 -5 5 C-7.75 5.6875 -7.75 5.6875 -10 6 C-8.94901234 3.13367003 -8.33137046 2.16993357 -5.5625 0.75 C-3 0 -3 0 0 0 Z " fill="#B37557" transform="translate(38,68)"/>
<path d="M0 0 C0.33 0.66 0.66 1.32 1 2 C1.66 2 2.32 2 3 2 C3.33 1.34 3.66 0.68 4 0 C4.6875 2.8125 4.6875 2.8125 5 6 C3.5625 7.875 3.5625 7.875 2 9 C1.67 8.34 1.34 7.68 1 7 C1.66 7 2.32 7 3 7 C3 6.01 3 5.02 3 4 C1.35 4 -0.3 4 -2 4 C-1.34 2.68 -0.68 1.36 0 0 Z " fill="#746A64" transform="translate(40,35)"/>
<path d="M0 0 C0.99 0 1.98 0 3 0 C3 0.66 3 1.32 3 2 C3.66 2 4.32 2 5 2 C4.67 2.99 4.34 3.98 4 5 C3.34 4.67 2.68 4.34 2 4 C1.67 4.99 1.34 5.98 1 7 C0.67 6.01 0.34 5.02 0 4 C-0.66 3.34 -1.32 2.68 -2 2 C-1.34 2 -0.68 2 0 2 C0 1.34 0 0.68 0 0 Z " fill="#9B8778" transform="translate(9,32)"/>
<path d="M0 0 C1.65 0 3.3 0 5 0 C5 0.66 5 1.32 5 2 C5.66 2.33 6.32 2.66 7 3 C6.01 3.99 5.02 4.98 4 6 C1.525 5.01 1.525 5.01 -1 4 C-0.67 3.34 -0.34 2.68 0 2 C1.98 2.495 1.98 2.495 4 3 C4 2.34 4 1.68 4 1 C2.68 0.67 1.36 0.34 0 0 Z " fill="#D5C1A9" transform="translate(5,27)"/>
<path d="M0 0 C2.31 0 4.62 0 7 0 C6.01 0.495 6.01 0.495 5 1 C5 1.66 5 2.32 5 3 C4.34 3 3.68 3 3 3 C3 3.66 3 4.32 3 5 C2.01 5 1.02 5 0 5 C0 3.35 0 1.7 0 0 Z " fill="#1D1918" transform="translate(25,0)"/>
<path d="M0 0 C2.125 0.9375 2.125 0.9375 4 2 C3.01 3.485 3.01 3.485 2 5 C0.68 5 -0.64 5 -2 5 C-2 3.68 -2 2.36 -2 1 C-1.34 0.67 -0.68 0.34 0 0 Z " fill="#5E4E47" transform="translate(6,34)"/>
<path d="M0 0 C0.99 0.33 1.98 0.66 3 1 C3 1.66 3 2.32 3 3 C2.34 3 1.68 3 1 3 C1.33 3.99 1.66 4.98 2 6 C1.34 6.66 0.68 7.32 0 8 C-1.125 5.6875 -1.125 5.6875 -2 3 C-1.34 2.01 -0.68 1.02 0 0 Z " fill="#CFB296" transform="translate(3,32)"/>
<path d="M0 0 C1.65 0 3.3 0 5 0 C5.33 0.99 5.66 1.98 6 3 C3 5 3 5 0 5 C0 3.35 0 1.7 0 0 Z " fill="#1E1A1A" transform="translate(17,8)"/>
<path d="M0 0 C0.33 0 0.66 0 1 0 C0.67 2.31 0.34 4.62 0 7 C-0.99 7 -1.98 7 -3 7 C-3 5.02 -3 3.04 -3 1 C-2.01 1.33 -1.02 1.66 0 2 C0 1.34 0 0.68 0 0 Z " fill="#100D0B" transform="translate(3,3)"/>
<path d="M0 0 C0.99 0 1.98 0 3 0 C3 2.97 3 5.94 3 9 C2.67 8.34 2.34 7.68 2 7 C1.01 6.67 0.02 6.34 -1 6 C-0.34 5.67 0.32 5.34 1 5 C0.67 3.35 0.34 1.7 0 0 Z " fill="#654C40" transform="translate(93,87)"/>
<path d="M0 0 C2.31 1.65 4.62 3.3 7 5 C6.34 5.66 5.68 6.32 5 7 C2.5 5.1875 2.5 5.1875 0 3 C0 2.01 0 1.02 0 0 Z " fill="#F19C6A" transform="translate(17,63)"/>
<path d="M0 0 C1.65 0 3.3 0 5 0 C5 0.99 5 1.98 5 3 C4.34 2.67 3.68 2.34 3 2 C2.34 3.32 1.68 4.64 1 6 C1 5.34 1 4.68 1 4 C0.34 4 -0.32 4 -1 4 C-0.67 2.68 -0.34 1.36 0 0 Z " fill="#16120F" transform="translate(40,44)"/>
<path d="M0 0 C2.875 -0.125 2.875 -0.125 6 0 C6.66 0.66 7.32 1.32 8 2 C1.25 3 1.25 3 -1 3 C-0.67 2.01 -0.34 1.02 0 0 Z " fill="#6E5245" transform="translate(75,88)"/>
<path d="M0 0 C0.66 0.33 1.32 0.66 2 1 C1.67 1.33 1.34 1.66 1 2 C1.66 2.66 2.32 3.32 3 4 C0.69 4.66 -1.62 5.32 -4 6 C-4 5.01 -4 4.02 -4 3 C-3.34 3 -2.68 3 -2 3 C-2 2.34 -2 1.68 -2 1 C-1.34 0.67 -0.68 0.34 0 0 Z " fill="#BBAFA2" transform="translate(54,34)"/>
<path d="M0 0 C0.103125 0.639375 0.20625 1.27875 0.3125 1.9375 C0.539375 2.618125 0.76625 3.29875 1 4 C1.99 4.33 2.98 4.66 4 5 C-0.75 6.125 -0.75 6.125 -3 5 C-3 4.01 -3 3.02 -3 2 C-2.34 2 -1.68 2 -1 2 C-0.67 1.34 -0.34 0.68 0 0 Z " fill="#7B736E" transform="translate(43,20)"/>
<path d="M0 0 C0.99 0.33 1.98 0.66 3 1 C2.34 1 1.68 1 1 1 C1 2.65 1 4.3 1 6 C0.01 6.495 0.01 6.495 -1 7 C-1.66 6.67 -2.32 6.34 -3 6 C-3 5.01 -3 4.02 -3 3 C-2.01 3 -1.02 3 0 3 C0 2.01 0 1.02 0 0 Z " fill="#383330" transform="translate(43,8)"/>
<path d="M0 0 C0.99 0.33 1.98 0.66 3 1 C3 1.66 3 2.32 3 3 C2.34 3 1.68 3 1 3 C1.66 4.98 2.32 6.96 3 9 C2.34 8.67 1.68 8.34 1 8 C1 7.34 1 6.68 1 6 C0.34 6 -0.32 6 -1 6 C-0.67 4.02 -0.34 2.04 0 0 Z " fill="#1A1716" transform="translate(52,5)"/>
<path d="M0 0 C0.33 0 0.66 0 1 0 C1 3.63 1 7.26 1 11 C-0.74627478 8.38058783 -1.38722388 6.96175123 -2 4 C-1.34 4 -0.68 4 0 4 C0 2.68 0 1.36 0 0 Z " fill="#443F41" transform="translate(94,67)"/>
<path d="M0 0 C2.475 0.495 2.475 0.495 5 1 C4.01 1.495 4.01 1.495 3 2 C3 3.98 3 5.96 3 8 C1.0549 5.08235 0.54723683 3.37462715 0 0 Z " fill="#766158" transform="translate(89,69)"/>
<path d="M0 0 C0.66 0.33 1.32 0.66 2 1 C0.02 3.97 0.02 3.97 -2 7 C-3.32 6.34 -4.64 5.68 -6 5 C-5.01 5 -4.02 5 -3 5 C-2.87625 4.360625 -2.7525 3.72125 -2.625 3.0625 C-2.41875 2.381875 -2.2125 1.70125 -2 1 C-1.34 0.67 -0.68 0.34 0 0 Z " fill="#E1865B" transform="translate(28,67)"/>
<path d="M0 0 C2.4375 0.375 2.4375 0.375 5 1 C5.33 1.66 5.66 2.32 6 3 C5.01 3.99 4.02 4.98 3 6 C2.814375 5.071875 2.814375 5.071875 2.625 4.125 C2.12802644 1.80879168 2.12802644 1.80879168 0 0 Z " fill="#302825" transform="translate(55,41)"/>
</svg>
